<?xml version="1.0" standalone="no"?>
<!DOCTYPE svg PUBLIC "-//W3C//DTD SVG 20010904//EN"
 "http://www.w3.org/TR/2001/REC-SVG-20010904/DTD/svg10.dtd">
<svg version="1.0" xmlns="http://www.w3.org/2000/svg"
 width="330.000000pt" height="314.000000pt" viewBox="0 0 330.000000 314.000000"
 preserveAspectRatio="xMidYMid meet">

<g transform="translate(0.000000,314.000000) scale(0.100000,-0.100000)"
fill="#000000" stroke="none">
<path d="M1998 2459 c-371 -51 -673 -335 -749 -704 -17 -81 -19 -142 -19 -583
l0 -493 518 3 c495 4 520 5 597 26 256 70 470 246 582 477 67 140 85 224 85
390 0 166 -18 250 -85 390 -112 231 -333 412 -580 475 -93 23 -256 32 -349 19z"/>
</g>
</svg>
